<?xml version="1.0" encoding="UTF-8"?>
<svg id="avatar" xmlns="http://www.w3.org/2000/svg" viewBox="0 0 43.63 43.63">
  <defs>
    <style>
      .cls-1 {
        fill: #212121;
      }

      .cls-2 {
        fill: #f0f6e8;
      }
    </style>
  </defs>
  <rect class="cls-1" width="43.63" height="43.63" rx="4.91" ry="4.91"/>
  <path class="cls-2" d="M38.48,22.97c.92-3.92.1-8.06-2.28-11.46-2.58-3.7-6.64-5.97-11.46-6.4-4.17-2.91-11.09-2.28-14.27-.52-.21.12-.33.34-.31.58,0,.13.06.25.14.36-1.38.31-3.27,1.02-4.24,2.22-.11.14-.15.31-.13.47s.12.32.26.42c0,0,.07.05.19.13-1,.45-2.1,1.16-2.92,2.28-.14.19-.15.43-.06.64-.28.31-.47.62-.59.94-.06.17-.05.36.03.52.05.09.26.47.6.89h0c-.17.14-.26.35-.24.56,0,.11.31,2.58,2.12,5.14-.35,2.08-.43,4.09-.26,6.01-1.65,5.42.42,8.87,2.45,10.81,2.71,2.59,6.92,3.99,11.27,3.99,2.27,0,4.58-.38,6.73-1.17.03,0,.08-.03.11-.03.9-.32,1.63-.63,2.18-.92.02,0,.03,0,.06-.02,2.23-.78,4.13-2.75,4.97-5.04.25.24.54.42.87.57.86.37,1.85.36,2.78-.05,1.97-.9,3.46-2.83,4.18-5.44.77-3.03-.58-4.78-2.15-5.48h-.02ZM26.93,23.42s-.6-2.76-3.1-3.47-4.7.55-4.7.55c0,0-.89-1.97.83-3.54,0,0-.1.43.19.85,1.02-.35,3.47-.39,5,.53,1.28.77,2.47,2.7,1.77,5.09h0ZM25.35,28.25c-1.7-.24-3.46-.27-4.94.79-.08.07-.19-.04-.13-.12.19-.26.44-.48.71-.67-.04.02-.08.03-.12.05-.45-.31-.81-.76-.93-1.28-.02-.04.04-.07.07-.03.48.54.97.85,1.43.99.36-.18.75-.3,1.14-.36-.77-.38-1.18-1.58-.92-2.87.06-.32.16-.61.29-.88.1.25.3.45.55.5.45.08.9-.3,1.01-.85.08-.4-.04-.78-.29-1,.23-.08.47-.11.69-.07.28.05.52.21.71.42-.25-.64-.69-1.17-1.41-1.49-1.31-.45-2.37.69-3.23,1.53.08-.7.58-1.39,1.2-1.83,1.32-1.01,3.34-.36,4,1.12.9,1.74.52,4.16-.87,5.53.38.12.74.28,1.04.53h0ZM21.78,31.79c-.34.68-.92,1.25-2.53,1.76-1.42.45-3.91.38-3.91.14s4.09.2,6.23-2.17c-.31-.16-.82-.19-.82-.35,0,0,1-.2,1.25.08.25.28-.15,1.19-.26,1.2-.09.02.09-.39.04-.67h0ZM10.43,25.93c-.89-.18-1.41-1.41-1.14-2.76.06-.3.15-.57.26-.81.09.24.28.42.52.46.42.08.84-.27.93-.79.08-.37-.04-.72-.26-.92.21-.08.43-.1.64-.06.29.06.53.23.73.47-.23-.65-.66-1.2-1.36-1.48-1.18-.33-2.3.45-2.92,1.45-.04.07-.14,0-.12-.06.81-2.32,3.58-2.95,4.81-.59.47.85.55,1.97.31,3.01.75-.86,2.81-1.06,2.81-.87,0,.2-1.84.64-2.42,1.42-.58.77-.84,2.8-.96,2.8-.08,0-.13-1.08.06-2.08-.66,1.18-1.8,1.97-3.26,1.61-.69-.23-1.19-.81-1.4-1.43-.02-.06.06-.09.09-.05.69.97,1.91,1.32,2.89.7-.08,0-.15,0-.23,0h0ZM7.72,19.69c.25-1.79,1.66-2.95,2.73-3.06,1.5-.15,2.58.47,3.14,1.02.21-.18.34-.68.34-.68.92,1.5-.25,3.15-.25,3.15,0,0-1.06-1.51-2.9-1.79-1.84-.29-3.04,1.36-3.04,1.36h0ZM16.46,29.82c0,.38-1.12.87-2.25.86-1.65-.02-2.25-1.65-2.25-1.65,1.4.8,4.51.42,4.51.8h0ZM40.01,28.28c-.58,2.08-1.78,4.09-3.84,5.03-1.53.67-3.13.02-3.64-1.43-.43,2.64-2.48,5.09-4.92,5.93.21-.36.64-.63.92-.93,1.44-1.42,2.73-3.03,3.36-4.98.2-.63.36-1.29.44-1.97,0-.04,0-.08,0-.11,0-.11.03-.22.03-.33,0-.04.08-.06.08,0,.08.3.12.6.14.91.17.69.44,1.34.89,1.76,1.46,1.42,3.48-.1,4.38-1.52,1.47-2.06,2.41-6.13-1.06-6.53-1.81-.22-3.03,1.28-4.14,2.61-.18.4-.36.87-.55,1.42-.47-.15-1.19-1.02-1.31-1.47-.1-.4.08-1.74.82-3.18,0,0-1.08-1.62-1.14-2.32-.07-.7-.26-3.38-.26-3.38,0,0-5-4.75-13.1-4.75-6,0-8.53,2.18-9.59,3.75-.47,1.24-.73,2.59-.92,3.9-.26,1.74-.26,3.5-.17,5.21-.71,2.22-.74,4.79.19,6.92,2.02,4.45,7.37,6.26,12,6.32,2.43.05,4.83-.38,7.28-.73.06-.02.09.08.03.11-9.7,4.01-24.02-.89-20.3-12.71-.19-2.09-.07-4.18.29-6.23-1.86-2.53-2.15-5.06-2.15-5.06,0,0,1.1.41,1.71.15-1.18-.03-2.14-1.83-2.14-1.83.24-.64.86-1.19,1.6-1.65-.64.03-1.03.22-1.03.22,1.04-1.42,2.59-2.13,3.72-2.47-.54-.42-1.12-.82-1.12-.82,1.19-1.47,4.14-2.17,5.09-2.17-.31-.62-.85-.82-.85-.82,2.97-1.64,9.8-2.31,13.76.57,10.15.81,15.37,9.89,13.21,17.65,1.71.47,3,2.14,2.29,4.92h0ZM35.49,26.64c.25.31.74,1.14-.13,2.26.12.1.24.24.32.42.53,1.06-1.12,1.86-1.28,1.85s-.14-.08-.04-.08c0,0,1.44-.98.71-1.67s-1.47-.13-1.57-.47c-.09-.34.36-1.14.36-1.14.53-.96,1.2-1.88,2.3-2.24,1.5-.37,2.06.98,1.47,2.16,0,.02-.03,0-.03,0,.31-1.91-1.03-2.18-2.12-1.1Z"/>
</svg>